<?xml version="1.0" encoding="UTF-8"?>
<!DOCTYPE svg PUBLIC "-//W3C//DTD SVG 1.1//EN" "http://www.w3.org/Graphics/SVG/1.1/DTD/svg11.dtd">
<svg version="1.1" xmlns="http://www.w3.org/2000/svg" xmlns:xlink="http://www.w3.org/1999/xlink" x="0" y="0" width="918.617" height="278.238" viewBox="0, 0, 918.617, 278.238">
  <g id="Layer_1">
    <path d="M230.547,0.005 C239.07,0.167 247.088,4.42 252.005,11.375 C256.139,17.237 257.746,24.357 256.53,31.428 C255.313,38.498 251.409,44.669 245.549,48.808 C240.906,52.086 235.441,53.767 229.757,53.659 L229.75,53.657 C226.067,53.587 222.48,52.784 219.103,51.267 L217.913,50.74 L142.78,111.608 L143.022,112.858 C144.463,120.202 142.9,127.561 138.628,133.581 C134.31,139.667 127.805,143.571 120.292,144.577 L119.044,144.746 L84.986,234.945 L85.64,235.866 C91.456,244.068 92.298,254.647 87.826,263.487 C83.2,272.64 73.581,278.432 63.317,278.233 C59.271,278.157 55.385,277.188 51.743,275.353 C45.337,272.113 40.578,266.58 38.336,259.759 C36.103,252.945 36.65,245.658 39.886,239.254 C44.474,230.179 53.728,224.574 64.026,224.625 L65.5,224.636 L97.887,138.877 L98.359,137.622 L97.421,136.661 C88.438,127.378 87.351,113.006 94.828,102.487 C99.944,95.282 108.288,91.077 117.154,91.245 C121.139,91.323 124.958,92.251 128.518,94.007 L129.738,94.604 L204.122,33.946 L203.832,32.672 C201.494,22.074 205.707,11.179 214.566,4.918 C219.276,1.591 224.801,-0.107 230.547,0.005 z" fill="#288FB2"/>
    <path d="M190.919,28.803 C190.641,23.328 191.57,17.951 193.477,12.945 L164.536,25.422 L168.978,46.692 L190.919,28.803" fill="#97C13E"/>
    <path d="M220.259,64.708 L179.625,97.624 L205.154,219.76 L253.614,198.561 L220.397,64.738 C220.351,64.723 220.302,64.721 220.259,64.708" fill="#97C13E"/>
    <path d="M55.602,48.191 L0,53.431 L29.189,233.158 C34.849,222.398 44.975,215.059 56.735,212.929 L78.168,156.182 L55.602,48.191" fill="#84A93F"/>
    <path d="M84.29,139.98 C75.252,126.662 75.193,108.835 84.775,95.344 C91.875,85.343 103.243,79.371 115.46,79 L104.131,24.809 L55.602,48.191 L78.168,156.182 L84.29,139.98" fill="#97C13E"/>
    <path d="M164.536,25.422 L104.131,24.809 L115.46,79 C116.105,78.98 116.742,78.904 117.392,78.917 C120.882,78.987 124.286,79.502 127.574,80.461 L168.978,46.692 L164.536,25.422" fill="#84A93F"/>
    <path d="M179.625,97.624 L155.856,116.881 C156.146,125.393 153.679,133.67 148.677,140.721 C144.241,146.989 138.213,151.67 131.214,154.408 L144.909,219.915 L205.154,219.76 L179.625,97.624" fill="#84A93F"/>
    <path d="M128.181,155.455 L98.946,232.874 L144.909,219.915 L131.214,154.408 C130.225,154.798 129.21,155.146 128.181,155.455" fill="#97C13E"/>
    <path d="M277.302,184.254 L277.302,97.096 L294.318,97.096 L296.892,109.713 Q308.596,97.096 325.031,97.096 Q341.467,97.096 347.526,109.049 Q360.891,97.096 375.5,97.096 Q405.549,97.096 405.549,130.216 L405.549,184.254 L383.552,184.254 L383.552,129.386 Q383.552,114.859 370.437,114.859 Q360.642,114.859 351.594,123.658 L351.594,184.254 L329.597,184.254 L329.597,129.635 Q329.597,114.859 317.478,114.859 Q307.849,114.859 299.299,123.658 L299.299,184.254 z" fill="#3A4347"/>
    <path d="M422.15,157.11 Q422.15,131.129 460.002,131.129 Q468.884,131.129 477.766,132.789 L477.766,126.231 Q477.766,114.527 460.915,114.527 Q446.638,114.527 429.206,118.678 L429.206,101.246 Q446.638,97.096 460.915,97.096 Q499.763,97.096 499.763,125.816 L499.763,184.254 L486.98,184.254 L479.177,176.451 Q467.805,184.254 454.108,184.254 Q422.15,184.254 422.15,157.11 z M460.002,146.07 Q444.148,146.07 444.148,156.861 Q444.148,168.482 457.429,168.482 Q468.386,168.482 477.766,161.676 L477.766,147.73 Q469.465,146.07 460.002,146.07 z" fill="#3A4347"/>
    <path d="M542.512,161.51 Q550.73,165.992 560.192,165.992 Q579.865,165.992 579.865,138.351 Q579.865,114.859 558.117,114.859 Q548.737,114.859 542.512,116.022 z M520.515,100.665 Q537.863,97.096 557.204,97.096 Q601.613,97.096 601.613,138.517 Q601.613,184.254 560.275,184.254 Q551.477,184.254 542.512,180.104 L542.512,215.797 L520.515,215.797 z" fill="#3A4347"/>
    <path d="M616.97,82.984 L633.239,82.984 L636.56,97.096 L658.474,97.096 L658.474,114.527 L638.967,114.527 L638.967,154.62 Q638.967,166.822 649.509,166.822 L658.474,166.822 L658.474,184.254 L638.884,184.254 Q616.97,184.254 616.97,160.763 z" fill="#3A4347"/>
    <path d="M695.412,65.553 L695.412,82.984 L673.415,82.984 L673.415,65.553 z M695.412,97.096 L695.412,184.254 L673.415,184.254 L673.415,97.096 z" fill="#3A4347"/>
    <path d="M716.164,184.254 L716.164,65.553 L738.161,65.553 L738.161,103.902 Q751.691,97.096 766.633,97.096 Q800.002,97.096 800.002,122.247 Q800.002,140.509 776.76,150.802 L803.82,184.254 L776.926,184.254 L754.182,153.126 L754.182,142.916 Q778.005,137.853 778.005,126.314 Q778.005,114.527 762.233,114.527 Q751.193,114.527 738.161,121.5 L738.161,184.254 z" fill="#3A4347"/>
    <path d="M816.272,180.104 L816.272,161.842 Q830.798,167.652 849.807,167.652 Q864.001,167.652 864.001,158.522 Q864.001,149.806 854.455,149.806 L838.684,149.806 Q812.121,149.806 812.121,123.658 Q812.121,96.266 850.886,96.266 Q867.321,96.266 881.848,101.246 L881.848,119.508 Q867.321,113.697 850.305,113.697 Q832.458,113.697 832.458,122.828 Q832.458,131.544 842.834,131.544 L856.945,131.544 Q885.998,131.544 885.998,157.691 Q885.998,185.084 848.977,185.084 Q830.798,185.084 816.272,180.104 z" fill="#3A4347"/>
  </g>
</svg>
